<?xml version="1.0" encoding="UTF-8"?>
<!-- Created with Inkscape (http://www.inkscape.org/) -->
<svg width="512" height="512" version="1.1" viewBox="0 0 135.47 135.47" xmlns="http://www.w3.org/2000/svg">
 <circle cx="68.254" cy="67.994" r="67.733" fill="#fff" stroke-width=".38907"/>
 <path d="m118.71 88.504c-0.9424 1.6864-2.3411 4.0077-3.0752 4.6624l-0.0893 14.87c0 4.2458-3.3232 7.6186-7.5888 7.6186h-78.725c-4.1634 0-7.5392-3.3728-7.5392-7.6186v-3.4323c-0.58925-0.23808-1.7499-0.6944-2.8768-1.1309-1.6239-0.62496-3.2736-1.488-3.2736-1.488l5.7536-8.5312-3.1744 7.1424 3.5712 1.359v-0.0159c4.5959 1.7598 13.814 4.6416 27.181 5.704 9.665 0.93546 27.762 0.1984 41.763-4.3648 12.891-4.1416 22.546-11.146 24.99-13.018 0.69837-0.75392 2.0366-2.2399 3.2319-3.846 1.7261-2.0981 3.0851-4.5483 3.0851-4.5483s-1.1904 3.6615-3.1744 6.7347zm-46.227 8.3328c-20.192 3.3649-46.237-8.432-46.237-8.432l-4.5533 6.944v-27.857c1.9473 2.7449 7.5124 8.5669 16.07 9.8039 11.669 1.6854 19.046-0.1984 19.046-0.1984l25.891-4.6624s19.075-4.1505 23.553 2.7627c4.591 6.942-13.391 18.463-33.771 21.639z" fill="#ff6634" fill-rule="evenodd" stroke-width=".0992"/>
 <path d="m103.43 66.184c-7.9271-1.3719-18.65-0.2976-18.65-0.2976s5.6594-2.0148 10.019-4.6624c3.6644-2.226 6.1553-5.1584 6.1553-5.1584l-11.115-9.2256s1.7271 7.3953-9.1264 11.706c-13.735 5.5393-41.351 6.204-43.44-2.2816-4.0017-17.367 46.614-21.03 46.614-21.03s-22.599-1.363-42.656 4.6624c-10.505 3.2974-17.809 10.819-19.632 12.733v-22.356c0-4.1634 3.475-7.5392 7.6384-7.5392h78.765c4.2626 0 7.6384 3.3758 7.6384 7.5392v40.824c-0.97712-0.70035-5.5443-3.7617-12.202-4.9134z" fill="#224da8" fill-rule="evenodd" stroke-width=".0992"/>
</svg>
