<svg 
 xmlns="http://www.w3.org/2000/svg"
 xmlns:xlink="http://www.w3.org/1999/xlink"
 width="512px" height="512px">
<path fill-rule="evenodd"  fill="rgb(34, 77, 168)"
 d="M256.104,0.382 C397.427,0.382 511.993,114.835 511.993,256.020 C511.993,397.205 397.427,511.658 256.104,511.658 C114.780,511.658 0.215,397.205 0.215,256.020 C0.215,114.835 114.780,0.382 256.104,0.382 Z"/>
<path fill-rule="evenodd"  fill="rgb(255, 255, 255)"
 d="M19.106,160.441 C19.106,160.441 29.137,127.257 63.118,122.257 C97.099,117.257 114.465,164.625 114.465,164.625 L182.055,356.067 C182.055,356.067 184.639,363.052 188.342,362.867 C192.046,362.682 196.201,353.452 196.201,353.452 L223.447,242.562 C223.447,242.562 234.673,207.285 265.363,204.378 C296.053,201.471 310.947,244.654 310.947,244.654 C310.947,244.654 299.627,240.258 292.608,243.085 C284.743,246.254 281.081,256.685 281.081,256.685 L233.402,436.619 C233.402,436.619 222.248,457.018 190.438,457.018 C158.628,457.018 150.094,437.665 150.094,437.665 L54.735,175.610 C54.735,175.610 49.025,160.295 39.540,156.256 C31.299,152.747 19.106,160.441 19.106,160.441 Z"/>
<path fill-rule="evenodd"  fill="rgb(255, 102, 52)"
 d="M297.666,348.112 C297.666,348.112 317.805,349.489 331.173,342.878 C341.844,337.600 346.356,324.033 346.356,324.033 L388.763,143.962 C388.763,143.962 397.888,116.545 428.552,113.077 C454.132,110.184 480.384,133.492 480.384,133.492 C480.384,133.492 463.641,135.011 452.112,143.962 C441.422,152.261 435.882,168.041 435.882,168.041 L399.234,345.495 C399.234,345.495 386.564,378.368 358.921,380.044 C331.278,381.719 297.666,348.112 297.666,348.112 Z"/>
</svg>